<svg version="1.1" xmlns="http://www.w3.org/2000/svg" xmlns:xlink="http://www.w3.org/1999/xlink" width="16" height="16" viewBox="0,0,16,16"><g transform="translate(-352.00001,-182.00002)"><g stroke-miterlimit="10"><path d="M352.00001,198.00003v-16h16v16z" fill-opacity="0.01176" fill="#000000" stroke="#000000" stroke-width="0"/><path d="M358.22135,190.00002c0,-0.98234 0.79634,-1.77869 1.77868,-1.77869c0.98234,0 1.77868,0.79635 1.77868,1.77869c0,0.98234 -0.79634,1.77869 -1.77868,1.77869c-0.98234,0 -1.77868,-0.79635 -1.77868,-1.77869z" fill="#ff0000" stroke="#727272" stroke-width="1"/><path d="M358.22135,190.00002c0,-0.98234 0.79634,-1.77869 1.77868,-1.77869c0.98234,0 1.77868,0.79635 1.77868,1.77869c0,0.98234 -0.79634,1.77869 -1.77868,1.77869c-0.98234,0 -1.77868,-0.79635 -1.77868,-1.77869z" fill="#000000" stroke="#000000" stroke-width="0"/></g></g></svg>