<svg version="1.1" xmlns="http://www.w3.org/2000/svg" xmlns:xlink="http://www.w3.org/1999/xlink" width="63.25" height="63.25" viewBox="0,0,63.25,63.25"><g transform="translate(-328.375,-158.375)"><g stroke-miterlimit="10"><path d="M330.875,219.125v-58.25h58.25v58.25z" fill="#0d0008" stroke="#ff00a0" stroke-width="5"/><path d="M339.875,190c0,-11.11473 9.01027,-20.125 20.125,-20.125c11.11473,0 20.125,9.01027 20.125,20.125c0,11.11473 -9.01027,20.125 -20.125,20.125c-11.11473,0 -20.125,-9.01027 -20.125,-20.125z" fill="#ff00a0" stroke="#00ff00" stroke-width="0"/><path d="M339.875,190c0,-4.77231 1.6611,-9.15665 4.43667,-12.60638c1.89108,-2.35039 -10.53274,11.18289 2.08398,24.73123c13.84015,15.0256 27.42598,2.83936 24.8023,4.59955c-3.2013,2.14771 -7.05331,3.4006 -11.19795,3.4006c-11.11473,0 -20.125,-9.01027 -20.125,-20.125z" fill="#a10000" stroke="#00ff00" stroke-width="0"/><text transform="translate(338.09905,212.16378) scale(0.1699,0.1699)" font-size="40" xml:space="preserve" fill="#ff00a0" stroke="#0d0008" stroke-width="2" font-family="&quot;VCR_OSD_MONO_1&quot;, Sans Serif" font-weight="normal" text-anchor="start"><tspan x="0" dy="0">Remove Last</tspan></text><text transform="translate(338.09905,212.16378) scale(0.1699,0.1699)" font-size="40" xml:space="preserve" fill="#ff00a0" stroke="#000e00" stroke-width="0" font-family="&quot;VCR_OSD_MONO_1&quot;, Sans Serif" font-weight="normal" text-anchor="start"><tspan x="0" dy="0">Remove Last</tspan></text><path d="M380.125,178.62101h-15.95v-2.37536h15.95z" fill="#ff00a0" stroke="#0d0008" stroke-width="1.5"/><path d="M380.125,178.62101h-15.95v-2.37536h15.95z" fill="#ff00a0" stroke="#00ff00" stroke-width="0"/><path d="M367.70099,195.88095v-7.11842l6.17628,3.55921z" fill="#ff00a0" stroke="#00090d" stroke-width="1.5"/><path d="M370.42274,195.88095v-7.11842l6.17628,3.55921z" fill="#ff00a0" stroke="#00090d" stroke-width="1.5"/><path d="M367.70099,195.88095v-7.11842l6.17628,3.55921z" fill="#ff00a0" stroke="#00090d" stroke-width="0"/><path d="M370.42274,195.88095v-7.11842l6.17628,3.55921z" fill="#ff00a0" stroke="#00090d" stroke-width="0"/></g></g></svg>