<svg version="1.1" xmlns="http://www.w3.org/2000/svg" xmlns:xlink="http://www.w3.org/1999/xlink" width="62.28571" height="62.28571" viewBox="0,0,62.28571,62.28571"><g transform="translate(-328.85714,-158.85714)"><g stroke-miterlimit="10"><path d="M328.85714,221.14286v-62.28571h62.28571v62.28571z" fill="#000000" stroke="none" stroke-width="0" stroke-linecap="butt"/><path d="M339.875,190c0,-11.11473 9.01027,-20.125 20.125,-20.125c11.11473,0 20.125,9.01027 20.125,20.125c0,11.11473 -9.01027,20.125 -20.125,20.125c-11.11473,0 -20.125,-9.01027 -20.125,-20.125z" fill="#ffffff" stroke="#00ff00" stroke-width="0" stroke-linecap="butt"/><text transform="translate(365.71429,183.3997) scale(0.36836,0.36836)" font-size="40" xml:space="preserve" fill="#ffffff" stroke="#000000" stroke-width="4" stroke-linecap="butt" font-family="&quot;VCR_OSD_MONO_1&quot;, Sans Serif" font-weight="normal" text-anchor="start"><tspan x="0" dy="0">II</tspan></text><path d="M339.875,190c0,-4.77231 1.6611,-9.15665 4.43667,-12.60638c1.89108,-2.35039 -10.53274,11.18289 2.08398,24.73123c13.84015,15.0256 27.42598,2.83936 24.8023,4.59955c-3.2013,2.14771 -7.05331,3.4006 -11.19795,3.4006c-11.11473,0 -20.125,-9.01027 -20.125,-20.125z" fill="#585858" stroke="#00ff00" stroke-width="0" stroke-linecap="butt"/><path d="M350.25295,192.41662c-3.31946,-3.31946 -3.31946,-8.70136 0,-12.02082c3.31946,-3.31946 8.70136,-3.31946 12.02082,0c3.31946,3.31946 3.31946,8.70136 0,12.02082c-3.31946,3.31946 -8.70136,3.31946 -12.02082,0z" fill="#585858" stroke="#000000" stroke-width="0" stroke-linecap="butt"/><path d="M359.54636,189.68921l10.40457,10.40457" fill="none" stroke="#585858" stroke-width="4" stroke-linecap="round"/><path d="M351.76818,190.9014c-2.48262,-2.48262 -2.48262,-6.50774 0,-8.99036c2.48262,-2.48262 6.50774,-2.48262 8.99036,0c2.48262,2.48262 2.48262,6.50774 0,8.99036c-2.48262,2.48262 -6.50774,2.48262 -8.99036,0z" fill="#ffffff" stroke="#000000" stroke-width="0" stroke-linecap="butt"/><text transform="translate(365.71429,183.3997) scale(0.36836,0.36836)" font-size="40" xml:space="preserve" fill="#ffffff" stroke="none" stroke-width="1" stroke-linecap="butt" font-family="&quot;VCR_OSD_MONO_1&quot;, Sans Serif" font-weight="normal" text-anchor="start"><tspan x="0" dy="0">II</tspan></text></g></g></svg>