<svg version="1.1" xmlns="http://www.w3.org/2000/svg" xmlns:xlink="http://www.w3.org/1999/xlink" width="90" height="102.92773" viewBox="0,0,90,102.92773"><g transform="translate(-315.00001,-145)"><g stroke-miterlimit="10"><path d="M317.00001,233v-86h86v86z" fill="#000000" stroke="#ffffff" stroke-width="4"/><text transform="translate(344.82316,245.19376) scale(0.21584,0.21584)" font-size="40" xml:space="preserve" fill="#ffffff" stroke="#ffffff" stroke-width="0" font-family="&quot;VCR_OSD_MONO_1&quot;, Sans Serif" font-weight="normal" text-anchor="start"><tspan x="0" dy="0">No Map</tspan></text><path d="M326.70932,219.50871l10.17786,-21.4159h46.22441l10.17786,21.4159z" fill="#ffffff" stroke="#ffd2d2" stroke-width="0"/><g fill="#ff0000" stroke="#000000" stroke-width="2.5"><path d="M347.91318,175.55203c0,-6.67503 5.41117,-12.0862 12.0862,-12.0862c6.67503,0 12.0862,5.41118 12.0862,12.0862c0,6.67503 -5.41118,12.0862 -12.0862,12.0862c-6.67503,0 -12.0862,-5.41117 -12.0862,-12.0862z"/><path d="M359.99938,203.30911l-9.4839,-20.39658l9.4839,-17.75039l9.5619,17.69512z"/></g><g fill="#ffffff" stroke-width="0"><path d="M347.91318,175.55203c0,-6.67503 5.41117,-12.0862 12.0862,-12.0862c6.67503,0 12.0862,5.41118 12.0862,12.0862c0,6.67503 -5.41118,12.0862 -12.0862,12.0862c-6.67503,0 -12.0862,-5.41117 -12.0862,-12.0862z" stroke="#ffd2d2"/><path d="M359.99938,203.30911l-9.4839,-20.39658l9.4839,-17.75039l9.5619,17.69512z" stroke="none"/></g><text transform="translate(354.14001,183.30952) scale(0.5,0.5)" font-size="40" xml:space="preserve" fill="#000000" stroke="none" stroke-width="1" font-family="&quot;VCR_OSD_MONO_1&quot;, Sans Serif" font-weight="normal" text-anchor="start"><tspan x="0" dy="0">?</tspan></text></g></g></svg>