<svg version="1.1" xmlns="http://www.w3.org/2000/svg" xmlns:xlink="http://www.w3.org/1999/xlink" width="63.25" height="63.25" viewBox="0,0,63.25,63.25"><g transform="translate(-328.375,-158.375)"><g stroke-miterlimit="10"><path d="M330.875,219.125v-58.25h58.25v58.25z" fill="#000000" stroke="#800000" stroke-width="5"/><path d="M339.875,190c0,-11.11473 9.01027,-20.125 20.125,-20.125c11.11473,0 20.125,9.01027 20.125,20.125c0,11.11473 -9.01027,20.125 -20.125,20.125c-11.11473,0 -20.125,-9.01027 -20.125,-20.125z" fill="#800000" stroke="#00ff00" stroke-width="0"/><path d="M339.875,190c0,-4.77231 1.6611,-9.15665 4.43667,-12.60638c1.89108,-2.35039 -10.53274,11.18289 2.08398,24.73123c13.84015,15.0256 27.42598,2.83936 24.8023,4.59955c-3.2013,2.14771 -7.05331,3.4006 -11.19795,3.4006c-11.11473,0 -20.125,-9.01027 -20.125,-20.125z" fill="#3b0000" stroke="#00ff00" stroke-width="0"/><text transform="translate(346.08398,212.40357) scale(0.2375,0.2375)" font-size="40" xml:space="preserve" fill="#800000" stroke="#000000" stroke-width="2" font-family="&quot;VCR_OSD_MONO_1&quot;, Sans Serif" font-weight="normal" text-anchor="start"><tspan x="0" dy="0">Clear</tspan></text><text transform="translate(346.08398,212.40357) scale(0.2375,0.2375)" font-size="40" xml:space="preserve" fill="#ff0000" stroke="#000e00" stroke-width="0" font-family="&quot;VCR_OSD_MONO_1&quot;, Sans Serif" font-weight="normal" text-anchor="start"><tspan x="0" dy="0">Clear</tspan></text><path d="M380.125,178.62101h-15.95v-2.37536h15.95z" fill="#ff0000" stroke="#000000" stroke-width="1.5"/><path d="M380.125,178.62101h-15.95v-2.37536h15.95z" fill="#ff0000" stroke="#00ff00" stroke-width="0"/><path d="M369.275,188.38569h8.95v6.73019h-8.95z" fill="#ff0000" stroke="#000000" stroke-width="1.5"/><path d="M369.275,188.38569h8.95v6.73019h-8.95z" fill="#ff0000" stroke="#0d0b00" stroke-width="0"/><path d="M366.075,191.75078h8.95v6.73019h-8.95z" fill="#ff0000" stroke="#000000" stroke-width="1.5"/><path d="M366.075,191.75078h8.95v6.73019h-8.95z" fill="#ff0000" stroke="#0d0b00" stroke-width="0"/></g></g></svg>