<svg version="1.1" xmlns="http://www.w3.org/2000/svg" xmlns:xlink="http://www.w3.org/1999/xlink" width="66.58013" height="57.29288" viewBox="0,0,66.58013,57.29288"><g transform="translate(-326.70932,-162.21583)"><g stroke-miterlimit="10"><path d="M326.70932,219.50871l10.17786,-21.4159h46.22441l10.17786,21.4159z" fill="#ff0000" stroke="#ffd2d2" stroke-width="0"/><g fill="#ff0000" stroke="#000000" stroke-width="2.5"><path d="M347.91318,175.55203c0,-6.67503 5.41117,-12.0862 12.0862,-12.0862c6.67503,0 12.0862,5.41118 12.0862,12.0862c0,6.67503 -5.41118,12.0862 -12.0862,12.0862c-6.67503,0 -12.0862,-5.41117 -12.0862,-12.0862z"/><path d="M359.99938,203.30911l-9.4839,-20.39658l9.4839,-17.75039l9.5619,17.69512z"/></g><g fill="#ff0000" stroke-width="0"><path d="M347.91318,175.55203c0,-6.67503 5.41117,-12.0862 12.0862,-12.0862c6.67503,0 12.0862,5.41118 12.0862,12.0862c0,6.67503 -5.41118,12.0862 -12.0862,12.0862c-6.67503,0 -12.0862,-5.41117 -12.0862,-12.0862z" stroke="#ffd2d2"/><path d="M359.99938,203.30911l-9.4839,-20.39658l9.4839,-17.75039l9.5619,17.69512z" stroke="none"/></g><path d="M352.42795,175.55203c0,-4.18158 3.38984,-7.57143 7.57143,-7.57143c4.18158,0 7.57143,3.38984 7.57143,7.57143c0,4.18158 -3.38984,7.57143 -7.57143,7.57143c-4.18158,0 -7.57143,-3.38984 -7.57143,-7.57143z" fill="#000000" stroke="#ffffff" stroke-width="0"/></g></g></svg>