<svg version="1.1" xmlns="http://www.w3.org/2000/svg" xmlns:xlink="http://www.w3.org/1999/xlink" width="68.21372" height="21" viewBox="0,0,68.21372,21"><g transform="translate(-325.89314,-179.5)"><g stroke-miterlimit="10"><path d="M327.14314,199.25v-18.5h65.71372v18.5z" fill="#00000d" stroke="#0000ff" stroke-width="2.5"/><path d="M353.18087,195.58334v-11.16667h32.83333v11.16667z" fill-opacity="0" fill="#0d0d0d" stroke="none" stroke-width="0"/><text transform="translate(359.6755,192.54004) scale(0.21167,0.21167)" font-size="40" xml:space="preserve" fill="#0000ff" stroke="none" stroke-width="1" font-family="&quot;VCR_OSD_MONO_1&quot;, Sans Serif" font-weight="normal" text-anchor="start"><tspan x="0" dy="0">Blue</tspan></text><path d="M330.70833,190c0,-3.47479 2.81688,-6.29166 6.29167,-6.29166c3.47479,0 6.29167,2.81687 6.29167,6.29166c0,3.47479 -2.81688,6.29166 -6.29167,6.29166c-3.47479,0 -6.29167,-2.81687 -6.29167,-6.29166z" fill="#0000ff" stroke="#00ff00" stroke-width="0"/><path d="M330.70833,190c0,-1.49196 0.51931,-2.86264 1.38703,-3.94112c0.59121,-0.7348 -3.29285,3.4961 0.65151,7.73171c4.32684,4.69744 8.57417,0.88767 7.75393,1.43796c-1.00082,0.67144 -2.20508,1.06312 -3.50081,1.06312c-3.47479,0 -6.29167,-2.81687 -6.29167,-6.29166z" fill-opacity="0.45098" fill="#000000" stroke="#00ff00" stroke-width="0"/></g></g></svg>